# xmcd
#
# Track frame offsets:
#	150
#	16409
#	35931
#	63224
#	76413
#	96130
#	112709
#	127080
#	142070
#	159786
#
# Disc length: 2349 seconds
#
# Revision: 0
# Processed by: cddbd v1.5.2PL0 Copyright (c) Steve Scherf et al.
# Submitted via: audiograbber 1.83.01
#
DISCID=7d092b0a
DTITLE=Anthony Crawford - Five Is Red
DYEAR=2009
DGENRE=
TTITLE0=Self To The Dark
TTITLE1=Window Down
TTITLE2=Blue Ribbon Shine
TTITLE3=Halifax Midnight Sun
TTITLE4=Turning Corners
TTITLE5=Noise
TTITLE6=California
TTITLE7=Elevation
TTITLE8=That Ole Highway
TTITLE9=What A Way To Begin
EXTD=
EXTT0=
EXTT1=
EXTT2=
EXTT3=
EXTT4=
EXTT5=
EXTT6=
EXTT7=
EXTT8=
EXTT9=
PLAYORDER=
